<svg width="23" height="26" viewBox="0 0 23 26" fill="none" xmlns="http://www.w3.org/2000/svg">
<path d="M1.92798 4C1.92798 3.20435 2.18758 2.44129 2.64967 1.87868C3.11176 1.31607 3.73849 1 4.39198 1H6.85598C7.50948 1 8.1362 1.31607 8.59829 1.87868C9.06038 2.44129 9.31998 3.20435 9.31998 4V7C9.31998 7.79565 9.06038 8.55871 8.59829 9.12132C8.1362 9.68393 7.50948 10 6.85598 10H4.39198C3.73849 10 3.11176 9.68393 2.64967 9.12132C2.18758 8.55871 1.92798 7.79565 1.92798 7V4ZM14.248 4C14.248 3.20435 14.5076 2.44129 14.9697 1.87868C15.4318 1.31607 16.0585 1 16.712 1H19.176C19.8295 1 20.4562 1.31607 20.9183 1.87868C21.3804 2.44129 21.64 3.20435 21.64 4V7C21.64 7.79565 21.3804 8.55871 20.9183 9.12132C20.4562 9.68393 19.8295 10 19.176 10H16.712C16.0585 10 15.4318 9.68393 14.9697 9.12132C14.5076 8.55871 14.248 7.79565 14.248 7V4ZM1.92798 19C1.92798 18.2044 2.18758 17.4413 2.64967 16.8787C3.11176 16.3161 3.73849 16 4.39198 16H6.85598C7.50948 16 8.1362 16.3161 8.59829 16.8787C9.06038 17.4413 9.31998 18.2044 9.31998 19V22C9.31998 22.7956 9.06038 23.5587 8.59829 24.1213C8.1362 24.6839 7.50948 25 6.85598 25H4.39198C3.73849 25 3.11176 24.6839 2.64967 24.1213C2.18758 23.5587 1.92798 22.7956 1.92798 22V19ZM14.248 19C14.248 18.2044 14.5076 17.4413 14.9697 16.8787C15.4318 16.3161 16.0585 16 16.712 16H19.176C19.8295 16 20.4562 16.3161 20.9183 16.8787C21.3804 17.4413 21.64 18.2044 21.64 19V22C21.64 22.7956 21.3804 23.5587 20.9183 24.1213C20.4562 24.6839 19.8295 25 19.176 25H16.712C16.0585 25 15.4318 24.6839 14.9697 24.1213C14.5076 23.5587 14.248 22.7956 14.248 22V19Z" stroke="#8597A8" stroke-width="2" stroke-linecap="round" stroke-linejoin="round"/>
</svg>
