<svg width="41" height="38" viewBox="0 0 41 38" fill="none" xmlns="http://www.w3.org/2000/svg">
<path fill-rule="evenodd" clip-rule="evenodd" d="M16.3162 24.5341C16.8496 24.5341 17.3612 24.7297 17.7383 25.0777C18.1155 25.4258 18.3274 25.8978 18.3274 26.3901C18.3274 26.8823 18.1155 27.3543 17.7383 27.7024C17.3612 28.0505 16.8496 28.246 16.3162 28.246H6.26015C5.72674 28.246 5.21518 28.0505 4.838 27.7024C4.46083 27.3543 4.24894 26.8823 4.24894 26.3901V17.1104C4.24894 16.6182 4.46083 16.1461 4.838 15.7981C5.21518 15.45 5.72674 15.2545 6.26015 15.2545C6.79355 15.2545 7.30511 15.45 7.68229 15.7981C8.05946 16.1461 8.27136 16.6182 8.27136 17.1104V21.9098L16.9055 13.9423C17.2826 13.5944 17.7941 13.3989 18.3274 13.3989C18.8607 13.3989 19.3722 13.5944 19.7493 13.9423L24.361 18.198L32.9952 10.2305C33.3745 9.89238 33.8825 9.70531 34.4099 9.70954C34.9372 9.71377 35.4416 9.90896 35.8145 10.2531C36.1874 10.5972 36.3989 11.0627 36.4035 11.5493C36.4081 12.0359 36.2054 12.5047 35.839 12.8547L25.783 22.1344C25.4058 22.4823 24.8943 22.6778 24.361 22.6778C23.8277 22.6778 23.3163 22.4823 22.9391 22.1344L18.3274 17.8788L11.1152 24.5341H16.3162Z" fill="#56548C"/>
</svg>
