<svg width="34" height="24" viewBox="0 0 34 24" fill="none" xmlns="http://www.w3.org/2000/svg">
<path d="M18.5112 17.3334V18.6667C18.5112 19.7276 17.9639 20.745 16.9896 21.4951C16.0154 22.2453 14.6941 22.6667 13.3163 22.6667H6.38977C5.012 22.6667 3.69066 22.2453 2.71643 21.4951C1.7422 20.745 1.19489 19.7276 1.19489 18.6667V5.33337C1.19489 4.27251 1.7422 3.25509 2.71643 2.50495C3.69066 1.7548 5.012 1.33337 6.38977 1.33337H13.3163C14.6941 1.33337 16.0154 1.7548 16.9896 2.50495C17.9639 3.25509 18.5112 4.27251 18.5112 5.33337V6.66671M25.4377 17.3334L32.3642 12L25.4377 17.3334ZM32.3642 12L25.4377 6.66671L32.3642 12ZM32.3642 12H8.1214H32.3642Z" stroke="#D36363" stroke-width="2" stroke-linecap="round" stroke-linejoin="round"/>
</svg>
