<svg width="28" height="25" viewBox="0 0 28 25" fill="none" xmlns="http://www.w3.org/2000/svg">
<path d="M20.9797 18.3333V21C20.9797 21.7072 20.6824 22.3855 20.1534 22.8856C19.6243 23.3857 18.9067 23.6667 18.1585 23.6667H4.05283C3.30462 23.6667 2.58705 23.3857 2.05798 22.8856C1.52892 22.3855 1.23169 21.7072 1.23169 21V11.6667C1.23169 10.9594 1.52892 10.2811 2.05798 9.78105C2.58705 9.28095 3.30462 9 4.05283 9H6.87397M11.1057 3.66667H9.6951C8.94689 3.66667 8.22932 3.94762 7.70026 4.44771C7.17119 4.94781 6.87397 5.62609 6.87397 6.33333V15.6667C6.87397 16.3739 7.17119 17.0522 7.70026 17.5523C8.22932 18.0524 8.94689 18.3333 9.6951 18.3333H23.8008C24.549 18.3333 25.2666 18.0524 25.7956 17.5523C26.3247 17.0522 26.6219 16.3739 26.6219 15.6667V6.33333C26.6219 5.62609 26.3247 4.94781 25.7956 4.44771C25.2666 3.94762 24.549 3.66667 23.8008 3.66667H22.3902M20.9797 9L16.748 13M16.748 13L12.5162 9M16.748 13V1" stroke="#8597A8" stroke-width="2" stroke-linecap="round" stroke-linejoin="round"/>
</svg>
