<svg width="30" height="30" viewBox="0 0 30 30" fill="none" xmlns="http://www.w3.org/2000/svg">
<path d="M28.3333 28.3333L21.6666 21.6666M25 13.3333C25 14.8654 24.6982 16.3825 24.1119 17.7979C23.5256 19.2134 22.6662 20.4995 21.5829 21.5829C20.4995 22.6662 19.2134 23.5256 17.7979 24.1119C16.3825 24.6982 14.8654 25 13.3333 25C11.8012 25 10.2841 24.6982 8.86865 24.1119C7.45319 23.5256 6.16706 22.6662 5.08371 21.5829C4.00036 20.4995 3.141 19.2134 2.5547 17.7979C1.96839 16.3825 1.66663 14.8654 1.66663 13.3333C1.66663 10.2391 2.89579 7.27164 5.08371 5.08371C7.27164 2.89579 10.2391 1.66663 13.3333 1.66663C16.4275 1.66663 19.3949 2.89579 21.5829 5.08371C23.7708 7.27164 25 10.2391 25 13.3333Z" stroke="#32383F" stroke-width="2" stroke-linecap="round" stroke-linejoin="round"/>
</svg>
