<svg width="30" height="30" viewBox="0 0 30 30" fill="none" xmlns="http://www.w3.org/2000/svg">
<path d="M28.3333 28.3334L21.6667 21.6667M25 13.3334C25 14.8655 24.6982 16.3826 24.1119 17.7981C23.5256 19.2135 22.6663 20.4996 21.5829 21.583C20.4996 22.6663 19.2135 23.5257 17.798 24.112C16.3825 24.6983 14.8654 25.0001 13.3334 25.0001C11.8013 25.0001 10.2842 24.6983 8.86871 24.112C7.45325 23.5257 6.16712 22.6663 5.08377 21.583C4.00042 20.4996 3.14106 19.2135 2.55476 17.7981C1.96845 16.3826 1.66669 14.8655 1.66669 13.3334C1.66669 10.2392 2.89585 7.27176 5.08377 5.08383C7.2717 2.89591 10.2392 1.66675 13.3334 1.66675C16.4275 1.66675 19.395 2.89591 21.5829 5.08383C23.7709 7.27176 25 10.2392 25 13.3334Z" stroke="#32383F" stroke-width="2" stroke-linecap="round" stroke-linejoin="round"/>
</svg>
