<svg width="34" height="32" viewBox="0 0 34 32" fill="none" xmlns="http://www.w3.org/2000/svg">
<path d="M21.1585 15C21.1585 16.0609 20.7126 17.0783 19.919 17.8284C19.1254 18.5786 18.0491 19 16.9268 19C15.8045 19 14.7281 18.5786 13.9345 17.8284C13.1409 17.0783 12.6951 16.0609 12.6951 15C12.6951 13.9391 13.1409 12.9217 13.9345 12.1716C14.7281 11.4214 15.8045 11 16.9268 11C18.0491 11 19.1254 11.4214 19.919 12.1716C20.7126 12.9217 21.1585 13.9391 21.1585 15V15Z" stroke="#8597A8" stroke-width="2" stroke-linecap="round" stroke-linejoin="round"/>
<path d="M14.5641 4.756C15.165 2.41467 18.6886 2.41467 19.2895 4.756C19.3797 5.10773 19.5564 5.43437 19.8054 5.70933C20.0543 5.98429 20.3684 6.19981 20.7222 6.33833C21.0759 6.47685 21.4592 6.53447 21.8409 6.50649C22.2227 6.47852 22.592 6.36574 22.9189 6.17733C25.0954 4.924 27.5879 7.27867 26.262 9.33733C26.0629 9.64621 25.9438 9.99512 25.9143 10.3557C25.8847 10.7163 25.9456 11.0784 26.092 11.4125C26.2384 11.7467 26.4661 12.0434 26.7567 12.2787C27.0472 12.514 27.3924 12.6812 27.7642 12.7667C30.2412 13.3347 30.2412 16.6653 27.7642 17.2333C27.3921 17.3186 27.0465 17.4856 26.7557 17.7209C26.4648 17.9563 26.2368 18.2532 26.0902 18.5875C25.9437 18.9219 25.8827 19.2842 25.9123 19.645C25.9419 20.0059 26.0612 20.355 26.2605 20.664C27.5865 22.7213 25.0954 25.0773 22.9175 23.824C22.5907 23.6359 22.2216 23.5233 21.8401 23.4954C21.4587 23.4674 21.0756 23.525 20.7221 23.6634C20.3686 23.8017 20.0546 24.017 19.8057 24.2916C19.5568 24.5663 19.3799 24.8926 19.2895 25.244C18.6886 27.5853 15.165 27.5853 14.5641 25.244C14.4739 24.8923 14.2972 24.5656 14.0482 24.2907C13.7993 24.0157 13.4852 23.8002 13.1315 23.6617C12.7777 23.5232 12.3944 23.4655 12.0127 23.4935C11.631 23.5215 11.2616 23.6343 10.9347 23.8227C8.75821 25.076 6.26573 22.7213 7.59167 20.6627C7.7907 20.3538 7.90982 20.0049 7.93935 19.6443C7.96888 19.2837 7.90798 18.9216 7.7616 18.5875C7.61522 18.2533 7.3875 17.9566 7.09694 17.7213C6.80638 17.486 6.46118 17.3188 6.08941 17.2333C3.61245 16.6653 3.61245 13.3347 6.08941 12.7667C6.46152 12.6814 6.80708 12.5144 7.09797 12.2791C7.38885 12.0437 7.61685 11.7468 7.7634 11.4125C7.90994 11.0781 7.9709 10.7158 7.9413 10.355C7.91171 9.99413 7.79239 9.645 7.59308 9.336C6.26714 7.27867 8.75821 4.92267 10.9361 6.176C12.3411 6.98667 14.1748 6.26933 14.5641 4.756Z" stroke="#8597A8" stroke-width="2" stroke-linecap="round" stroke-linejoin="round"/>
</svg>
